<?xml version="1.0" encoding="UTF-8"?>
<svg id="Layer_1" xmlns="http://www.w3.org/2000/svg" viewBox="0 0 31.11 75.65">
  <defs>
    <style>
      .cls-1 {
        fill: #e9f7fc;
      }
    </style>
  </defs>
  <path class="cls-1" d="M27.96,20.3c-5.57,1.91-6.25,1.24-8-4.3-.96-3.06-2.37-5.71-5.21-7.39-1.46-.86-1.8-2.01-1.12-3.54.19-.45.31-.95.4-1.44.25-1.28,0-2.42-1.19-3.12-.99-.59-2.15-.68-3.17-.2-1.25.6-1.77,2-1.27,3.06,1.82,3.9-.04,6.97-1.27,10.58C4.33,22.24,2.43,30.84.17,39.32c-.26,1.01-.39,2.16.94,2.43,1.47.29,1.41-1.08,1.65-1.96,1.23-4.52,2.47-13.87,3.63-13.56s.68,28.63-.76,42.86c-.18,1.81-.23,3.69-2.63,4.1-.56.09-.82.55-.77,1.11.04.59.49.76.99.94,2.75.93,4.37-.17,4.56-3.06.67-10.54,1.02-21.11,1.98-31.64.26-2.85,1.83-3.79,4.21-4.08,2.02-.25,3.55.66,4.08,3.64,1.29,7.33,1.17,14.58,1.67,21.98.23,3.41.2,6.79.34,10.13.1,2.72,2.26,4.22,4.58,3.03.48-.25.83-.57.81-1.13-.01-.72-.52-1.12-1.13-1.17-2.15-.15-2.08-1.62-2.16-3.2-.68-13.04-.64-26.12-2.02-39.12-.3-2.86-1.92-8.48-1.07-8.74.58-.17,2.26,2.21,3.88,1.89,2.24-.45,4.34-.93,6.6-1.28,1.12-.17,1.79-.85,1.5-2.02-.28-1.13-2.23-.46-3.09-.17Z"/>
</svg>